<svg xmlns="http://www.w3.org/2000/svg" xmlns:xlink="http://www.w3.org/1999/xlink" width="500" zoomAndPan="magnify" viewBox="0 0 375 374.999991" height="500" preserveAspectRatio="xMidYMid meet" version="1.0"><defs><clipPath id="93c13792e2"><path d="M 120.65625 114 L 254 114 L 254 262.5 L 120.65625 262.5 Z M 120.65625 114 " clip-rule="nonzero"/></clipPath></defs><g clip-path="url(#93c13792e2)"><path stroke-linecap="round" transform="matrix(7.37569, 0, 0, 7.386049, 105.904867, 99.975308)" fill="none" stroke-linejoin="round" d="M 9.999781 14.999414 C 9.3473 15.698578 8.989283 16.622512 8.999875 17.579235 L 8.999875 20.999429 M 13.999937 14.999414 C 14.652948 15.698578 15.010965 16.622512 14.999843 17.579235 L 14.999843 20.999429 M 8.999875 19.04949 C 8.105361 19.405418 7.135113 19.529174 6.180224 19.40912 C 4.660239 18.889243 5.060095 17.509424 4.279978 16.939304 C 3.905013 16.671167 3.460139 16.518324 2.999907 16.499285 M 18.999999 9.749335 C 18.999999 12.749078 17.049969 14.999414 12.000124 14.999414 C 6.949749 14.999414 5.000249 12.749078 5.000249 9.749335 C 4.975358 8.708521 5.208916 7.677756 5.679741 6.749063 C 5.34026 5.279337 5.470015 3.469019 6.199819 3.109389 C 6.930153 2.749229 8.470264 3.409257 9.739742 4.259149 C 10.485965 4.126403 11.24225 4.059237 12.000124 4.059237 C 12.756939 4.052361 13.513224 4.112652 14.259976 4.239052 C 15.529984 3.38916 17.140003 2.759278 17.799899 3.089292 C 18.459795 3.419306 18.659988 5.25924 18.319978 6.729495 C 18.794509 7.663477 19.028068 8.701646 18.999999 9.749335 Z M 18.999999 9.749335 " stroke="#475569" stroke-width="2" stroke-opacity="1" stroke-miterlimit="4"/></g><path fill="#485669" d="M 262.972656 217.386719 C 261.03125 215.441406 258.882812 213.292969 256.941406 211.351562 C 252.820312 207.234375 245.332031 207.710938 240.246094 212.796875 C 236.183594 216.859375 231.195312 221.847656 227.132812 225.910156 C 222.042969 231 221.566406 238.488281 225.6875 242.605469 C 227.628906 244.546875 229.777344 246.695312 231.71875 248.640625 C 235.835938 252.757812 243.328125 252.28125 248.414062 247.195312 C 251.296875 244.308594 254.644531 240.960938 257.800781 237.808594 C 258.617188 236.992188 258.617188 235.667969 257.800781 234.851562 C 256.984375 234.035156 255.660156 234.035156 254.847656 234.851562 C 251.691406 238.003906 248.34375 241.355469 245.460938 244.238281 C 242.15625 247.542969 237.347656 248.359375 234.671875 245.683594 C 234.671875 245.683594 228.640625 239.652344 228.640625 239.652344 C 225.964844 236.976562 226.78125 232.167969 230.085938 228.867188 C 234.148438 224.804688 239.136719 219.816406 243.199219 215.753906 C 246.503906 212.449219 251.3125 211.632812 253.984375 214.304688 C 253.984375 214.304688 260.019531 220.339844 260.019531 220.339844 C 260.832031 221.152344 262.160156 221.152344 262.972656 220.339844 C 263.789062 219.523438 263.789062 218.199219 262.972656 217.386719 Z M 245.496094 222.796875 C 247.4375 224.738281 249.585938 226.886719 251.527344 228.828125 C 255.648438 232.949219 263.136719 232.46875 268.222656 227.382812 C 272.285156 223.320312 277.273438 218.332031 281.335938 214.269531 C 286.425781 209.183594 286.898438 201.695312 282.78125 197.574219 C 280.839844 195.632812 278.691406 193.484375 276.75 191.542969 C 272.632812 187.425781 265.140625 187.902344 260.054688 192.988281 C 257.171875 195.871094 253.824219 199.21875 250.667969 202.375 C 249.851562 203.191406 249.851562 204.515625 250.667969 205.328125 C 251.484375 206.144531 252.808594 206.144531 253.621094 205.328125 C 256.777344 202.175781 260.125 198.824219 263.007812 195.941406 C 266.3125 192.640625 271.121094 191.824219 273.796875 194.496094 C 273.796875 194.496094 279.828125 200.53125 279.828125 200.53125 C 282.503906 203.203125 281.6875 208.011719 278.382812 211.316406 C 274.320312 215.378906 269.332031 220.367188 265.269531 224.429688 C 261.964844 227.734375 257.15625 228.550781 254.484375 225.875 C 254.484375 225.875 248.449219 219.84375 248.449219 219.84375 C 247.632812 219.027344 246.308594 219.027344 245.496094 219.84375 C 244.679688 220.65625 244.679688 221.980469 245.496094 222.796875 Z M 245.496094 222.796875 " fill-opacity="1" fill-rule="evenodd"/></svg>